HIERARCHY
ROOT Pelvis
{
	OFFSET 0.000000 0.000000 0.000000
	CHANNELS 6 Xposition Yposition Zposition Xrotation Yrotation Zrotation
	JOINT LeftUpLeg_virtual
	{
		OFFSET 0.000000 0.000000 0.000000
		CHANNELS 3 Xrotation Yrotation Zrotation
		JOINT LeftUpLeg
		{
			OFFSET 18.735201 -5.666702 -4.541200
			CHANNELS 3 Xrotation Yrotation Zrotation
			JOINT LeftLeg
			{
				OFFSET -0.021200 -31.938179 0.493100
				CHANNELS 3 Xrotation Yrotation Zrotation
				JOINT LeftFoot
				{
					OFFSET 0.021200 -31.938179 -4.336299
					CHANNELS 3 Xrotation Yrotation Zrotation
					JOINT LeftToeBase
					{
						OFFSET 0.943001 -26.722000 15.023500
						CHANNELS 3 Xrotation Yrotation Zrotation
						End Site
						{
							OFFSET 0 0 0
						}
					}
				}
			}
		}
	}
	JOINT RightUpLeg_virtual
	{
		OFFSET 0.000000 0.000000 0.000000
		CHANNELS 3 Xrotation Yrotation Zrotation
		JOINT RightUpLeg
		{
			OFFSET -18.735201 -5.666702 -4.541200
			CHANNELS 3 Xrotation Yrotation Zrotation
			JOINT RightLeg
			{
				OFFSET 0.018946 -31.938133 0.493100
				CHANNELS 3 Xrotation Yrotation Zrotation
				JOINT RightFoot
				{
					OFFSET -0.018946 -31.938126 -4.336299
					CHANNELS 3 Xrotation Yrotation Zrotation
					JOINT RightToeBase
					{
						OFFSET -0.943001 -26.722004 15.023500
						CHANNELS 3 Xrotation Yrotation Zrotation
						End Site
						{
							OFFSET 0 0 0
						}
					}
				}
			}
		}
	}
	JOINT Hips_virtual
	{
		OFFSET 0.000000 0.000000 0.000000
		CHANNELS 3 Xrotation Yrotation Zrotation
		JOINT Hips
		{
			OFFSET -0.000000 -0.000000 -0.000000
			CHANNELS 3 Xrotation Yrotation Zrotation
			JOINT Spine
			{
				OFFSET 0.000000 10.199997 -0.299500
				CHANNELS 3 Xrotation Yrotation Zrotation
				JOINT Spine1
				{
					OFFSET 0.000000 11.900002 -1.516600
					CHANNELS 3 Xrotation Yrotation Zrotation
					JOINT Spine2
					{
						OFFSET 0.000000 13.600006 -2.842500
						CHANNELS 3 Xrotation Yrotation Zrotation
						JOINT Neck_virtual
						{
							OFFSET 0.000000 0.000000 0.000000
							CHANNELS 3 Xrotation Yrotation Zrotation
							JOINT Neck
							{
								OFFSET 0.000000 9.624100 -2.890100
								CHANNELS 3 Xrotation Yrotation Zrotation
								JOINT Head
								{
									OFFSET 0.000000 14.068802 -1.351900
									CHANNELS 3 Xrotation Yrotation Zrotation
									End Site
									{
										OFFSET 0 0 0
									}
								}
							}
						}
						JOINT LeftShoulder_virtual
						{
							OFFSET 0.000000 0.000000 0.000000
							CHANNELS 3 Xrotation Yrotation Zrotation
							JOINT LeftShoulder
							{
								OFFSET 15.263000 10.923401 -0.547700
								CHANNELS 3 Xrotation Yrotation Zrotation
								JOINT LeftArm
								{
									OFFSET 25.438599 -2.830597 -13.032500
									CHANNELS 3 Xrotation Yrotation Zrotation
									JOINT LeftForeArm
									{
										OFFSET 29.960503 0.000000 0.000000
										CHANNELS 3 Xrotation Yrotation Zrotation
										JOINT LeftHand
										{
											OFFSET 27.849251 0.000000 0.000000
											CHANNELS 3 Xrotation Yrotation Zrotation
											End Site
											{
												OFFSET 0 0 0
											}
										}
									}
								}
							}
						}
						JOINT RightShoulder_virtual
						{
							OFFSET 0.000000 0.000000 0.000000
							CHANNELS 3 Xrotation Yrotation Zrotation
							JOINT RightShoulder
							{
								OFFSET -15.263000 10.923401 -0.547700
								CHANNELS 3 Xrotation Yrotation Zrotation
								JOINT RightArm
								{
									OFFSET -25.438599 -2.830597 -13.032500
									CHANNELS 3 Xrotation Yrotation Zrotation
									JOINT RightForeArm
									{
										OFFSET -29.960503 0.000000 0.000000
										CHANNELS 3 Xrotation Yrotation Zrotation
										JOINT RightHand
										{
											OFFSET -27.849251 0.000000 0.000000
											CHANNELS 3 Xrotation Yrotation Zrotation
											End Site
											{
												OFFSET 0 0 0
											}
										}
									}
								}
							}
						}
					}
				}
			}
		}
	}
}
MOTION
Frames: 7
Frame Time: 0.03333333
-0.099622 94.685104 4.088978 0.000000 0.000000 0.000000 -4.120413 -1.661318 0.444866 -5.091345 7.879873 6.495274 18.592849 9.198313 1.357161 -7.827323 5.329229 -8.482022 0.000000 0.000000 0.000000 -4.120413 -1.661318 0.444866 -2.444562 -9.080029 -8.057998 19.707176 -8.943374 1.519923 -11.463897 -5.212888 6.913002 0.000000 0.000000 0.000000 -4.120413 -1.661318 0.444866 0.000000 0.000000 0.000000 3.457095 1.692944 -2.300597 0.710881 0.526839 -0.263052 0.000000 0.000000 0.000000 0.710198 0.523097 -0.267070 1.044031 -0.301004 0.060135 0.000000 0.000000 0.000000 0.710198 0.523097 -0.267070 2.730607 -4.471829 -12.384152 -6.603774 -10.273118 -60.669169 -0.000006 -16.775185 -0.000016 0.000000 0.000000 0.000000 0.710198 0.523097 -0.267070 1.996585 1.476375 14.937830 -2.025625 7.814283 63.299953 -0.000002 12.108137 0.000016 0.000000 0.000000 0.000000 
-0.184152 94.655220 3.847857 0.000000 0.000000 0.000000 -4.300348 -1.283981 0.539171 -5.412241 7.812486 6.539119 19.052162 9.200097 1.352049 -8.039536 4.963566 -8.494366 0.000000 0.000000 0.000000 -4.300348 -1.283981 0.539171 -2.619200 -8.953039 -7.920753 20.331351 -8.989054 1.352749 -11.725255 -5.694458 6.871074 0.000000 0.000000 0.000000 -4.300348 -1.283981 0.539171 0.000000 0.000000 0.000000 3.646145 1.881425 -2.248335 0.742683 0.579923 -0.240280 0.000000 0.000000 0.000000 0.742192 0.575776 -0.244851 1.023173 -0.325317 0.059902 0.000000 0.000000 0.000000 0.742192 0.575776 -0.244851 2.723279 -4.477275 -12.342096 -6.439323 -9.530075 -60.740019 0.000004 -16.130146 0.000014 0.000000 0.000000 0.000000 0.742192 0.575776 -0.244851 1.997862 1.678048 14.926610 -2.716037 8.083345 63.101987 0.000001 12.576849 -0.000021 0.000000 0.000000 0.000000 
-0.261229 94.636490 3.616198 0.000000 0.000000 0.000000 -4.505400 -0.946794 0.622600 -5.647703 7.744394 6.568424 19.426866 9.202271 1.359000 -8.213607 4.631994 -8.505663 0.000000 0.000000 0.000000 -4.505400 -0.946794 0.622600 -2.721444 -8.874002 -7.811897 20.841569 -9.026227 1.228192 -11.925205 -6.095197 6.822583 0.000000 0.000000 0.000000 -4.505400 -0.946794 0.622600 0.000000 0.000000 0.000000 3.850675 2.083918 -2.187310 0.779252 0.636650 -0.214313 0.000000 0.000000 0.000000 0.779022 0.632010 -0.219523 1.002030 -0.349187 0.059693 0.000000 0.000000 0.000000 0.779022 0.632010 -0.219523 2.725929 -4.533559 -12.333781 -6.245859 -8.768371 -60.756575 -0.000006 -15.406547 -0.000009 0.000000 0.000000 0.000000 0.779022 0.632010 -0.219523 1.997979 1.881702 14.910771 -3.306480 8.365062 62.900728 0.000003 13.174785 -0.000006 0.000000 0.000000 0.000000 
-0.331013 94.625923 3.395380 0.000000 0.000000 0.000000 -4.717342 -0.617557 0.693349 -5.843224 7.676957 6.597723 19.748940 9.204061 1.376268 -8.360157 4.299478 -8.519505 0.000000 0.000000 0.000000 -4.717342 -0.617557 0.693349 -2.759282 -8.847243 -7.728318 21.245303 -9.051892 1.158921 -12.078411 -6.440469 6.753989 0.000000 0.000000 0.000000 -4.717342 -0.617557 0.693349 0.000000 0.000000 0.000000 4.045904 2.272729 -2.110956 0.816892 0.688821 -0.187654 0.000000 0.000000 0.000000 0.816969 0.683691 -0.193516 0.982072 -0.371608 0.059507 0.000000 0.000000 0.000000 0.816969 0.683691 -0.193516 2.731424 -4.597782 -12.332036 -6.033516 -7.976579 -60.769211 0.000005 -14.615918 0.000012 0.000000 0.000000 0.000000 0.816969 0.683691 -0.193516 2.000276 2.088531 14.902334 -3.800159 8.674483 62.681138 -0.000001 13.889300 0.000002 0.000000 0.000000 0.000000 
-0.394107 94.619331 3.186125 0.000000 0.000000 0.000000 -4.918892 -0.269732 0.757553 -6.034709 7.611215 6.629952 20.047415 9.206222 1.394413 -8.500277 3.953565 -8.530886 0.000000 0.000000 0.000000 -4.918892 -0.269732 0.757553 -2.754859 -8.855902 -7.656591 21.572557 -9.070875 1.125736 -12.206868 -6.772003 6.669985 0.000000 0.000000 0.000000 -4.918892 -0.269732 0.757553 0.000000 0.000000 0.000000 4.212327 2.428880 -2.025694 0.853396 0.731222 -0.162389 0.000000 0.000000 0.000000 0.853783 0.725644 -0.168855 0.963822 -0.391681 0.059357 0.000000 0.000000 0.000000 0.853783 0.725644 -0.168855 2.733644 -4.642484 -12.331562 -5.812742 -7.144128 -60.813641 0.000004 -13.796082 0.000013 0.000000 0.000000 0.000000 0.853783 0.725644 -0.168855 2.006187 2.285587 14.907448 -4.196574 9.036008 62.436528 -0.000002 14.723555 0.000035 0.000000 0.000000 0.000000 
-0.451303 94.615974 2.989622 0.000000 0.000000 0.000000 -5.105253 0.110546 0.826080 -6.222242 7.547258 6.658049 20.308727 9.208511 1.406376 -8.626101 3.592585 -8.534341 0.000000 0.000000 0.000000 -5.105253 0.110546 0.826080 -2.716816 -8.880667 -7.587348 21.841488 -9.087654 1.101653 -12.323317 -7.123863 6.586184 0.000000 0.000000 0.000000 -5.105253 0.110546 0.826080 0.000000 0.000000 0.000000 4.345626 2.550766 -1.948720 0.888733 0.764049 -0.138985 0.000000 0.000000 0.000000 0.889419 0.758037 -0.145994 0.947285 -0.409261 0.059229 0.000000 0.000000 0.000000 0.889419 0.758037 -0.145994 2.735174 -4.675173 -12.326566 -5.571912 -6.283269 -60.870455 -0.000002 -12.982565 -0.000011 0.000000 0.000000 0.000000 0.889419 0.758037 -0.145994 2.014543 2.451924 14.923613 -4.495739 9.460790 62.173764 0.000004 15.675959 0.000015 0.000000 0.000000 0.000000 
-0.503813 94.615669 2.805555 0.000000 0.000000 0.000000 -5.283551 0.522547 0.906270 -6.394481 7.484942 6.676539 20.517682 9.210824 1.408995 -8.720819 3.209531 -8.527932 0.000000 0.000000 0.000000 -5.283551 0.522547 0.906270 -2.651166 -8.909174 -7.515621 22.075317 -9.106403 1.067696 -12.438675 -7.504837 6.510873 0.000000 0.000000 0.000000 -5.283551 0.522547 0.906270 0.000000 0.000000 0.000000 4.455215 2.648611 -1.894762 0.923716 0.790730 -0.117401 0.000000 0.000000 0.000000 0.924696 0.784238 -0.124910 0.933289 -0.425259 0.061010 0.000000 0.000000 0.000000 0.924696 0.784238 -0.124910 2.737249 -4.718402 -12.320234 -5.287585 -5.423516 -60.921012 -0.000005 -12.198454 -0.000023 0.000000 0.000000 0.000000 0.924696 0.784238 -0.124910 2.023492 2.578335 14.945046 -4.714585 9.925525 61.913144 -0.000001 16.716311 0.000014 0.000000 0.000000 0.000000 
